<svg version="1" xmlns="http://www.w3.org/2000/svg" width="516" height="516" viewBox="0 0 387.000000 387.000000"><path d="M133 1.1c-8.7 1.1-11.8 1.8-17.8 4.3C93.5 14.2 82.7 31 79.5 61.3c-.1 1.2-.3 25.6-.4 54.3l-.1 52.1-8.7.1c-4.9 0-9.5.1-10.4.1-1.3.1-1.5 2.4-1.5 16.8l.1 16.8 10 .1 10 .1.3 89.6.2 89.7h37V201.5h52.5v-16.7c.1-14.2-.1-16.7-1.5-17-.8-.2-12.7-.3-26.3-.2l-24.9.1.5-54.6c.4-58.6.5-59.8 5.7-67.1 2.5-3.5 9.1-7.5 14-8.5 6.2-1.3 16.7-.7 24.5 1.4 4.1 1.2 7.6 2.1 7.8 2.1.8 0 0-35.1-.8-35.8-3.4-3.1-23.1-5.4-34.5-4.1zm120.4 162c-14.6 1.9-27.8 10.2-37.9 23.8l-2.5 3.5v-11.2c0-6.2-.3-11.2-.7-11.3-3.6-.4-34.7-.3-35.4.2-.7.4-1.3 152.2-.9 209.6v3.3h37l.1-62.3c0-34.2.2-64.5.5-67.2 2.8-33.9 13.5-50.5 34.4-53.4 3.6-.5 7.6-.7 9-.5 8 1.2 10 1.8 14.6 4.3l5.1 2.8 6.3-12.1c3.5-6.7 7.4-14.1 8.7-16.5 1.2-2.4 2.1-4.7 1.8-5.1-.3-.5-4.2-2.2-8.8-3.8-11.4-4.1-21.3-5.4-31.3-4.1zm43.8 172.1c-10.7 1.8-19.8 11.6-20.9 22.3-.9 8.6 1.1 14 7.6 20.6 6.5 6.4 12 8.5 20.5 7.6 6.4-.6 9.9-2.3 14.9-7.2 5.2-5.1 7.4-9.9 7.6-17.2.6-16.1-14-28.9-29.7-26.1z"/></svg>